<?xml version="1.0" encoding="utf-8"?>
<!-- Generator: Adobe Illustrator 17.1.0, SVG Export Plug-In . SVG Version: 6.00 Build 0)  -->
<!DOCTYPE svg PUBLIC "-//W3C//DTD SVG 1.1//EN" "http://www.w3.org/Graphics/SVG/1.1/DTD/svg11.dtd">
<svg version="1.1" id="Layer_1" xmlns="http://www.w3.org/2000/svg" xmlns:xlink="http://www.w3.org/1999/xlink" x="0px" y="0px"
	 viewBox="0 0 128 128" enable-background="new 0 0 128 128" xml:space="preserve">
<g display="none">
	<path display="inline" fill="#C2D1E3" d="M107.8,53.6c7.1,24.2-6.8,49.5-31,56.6c-24.2,7.1-49.5-6.8-56.6-31
		c-1-3.4-1.6-6.7-1.8-10.1c-0.4-5.8,0.4-11.4,2.1-16.7c4.5-13.9,15.5-25.4,30.6-29.8c16.5-4.8,33.6,0.1,45,11.4
		c3.6,3.6,6.7,7.8,8.9,12.6C106.2,48.9,107.1,51.2,107.8,53.6z"/>
	<path display="inline" fill="#A2AFC3" d="M96.2,34.1c-1.3,0.7-2.5,1.5-3.7,2.4c-12.7,9.8-9.6,26.4-18.1,38.1
		c-5.2,7.2-12.8,3.9-18.9-0.2C49,70,43.2,67.6,36,64.3c-6.6-3-11.7-7.1-15.5-11.9c4.5-13.9,15.5-25.4,30.6-29.8
		c8.6-2.5,17.4-2.4,25.4-0.1c1.6,0.5,3.1,1,4.7,1.6C86.8,26.5,91.9,29.9,96.2,34.1z"/>
	<path display="inline" fill="#A2AFC3" d="M107.8,53.6c5.1,17.5-0.7,35.6-13.5,47c-3.3,2.9-7.1,5.4-11.3,7.3c-2,0.9-4,1.7-6.2,2.3
		c-24.2,7.1-49.5-6.8-56.6-31c-1-3.4-1.6-6.7-1.8-10.1c5.6,3.7,11.4,10.9,14.5,13.5c5.7,4.9,12.9,8.9,20.3,8.1
		c7.1-0.8,13.5-5.8,20.6-5.3c2.8,0.2,5.6,1.2,8.3,0.7c4.5-0.8,7.3-5.5,8.2-10c0.9-4.5,0.4-9.2,1.3-13.7c1.5-7,6.7-13.1,13.3-15.7
		C106.2,48.9,107.1,51.2,107.8,53.6z"/>
	
		<ellipse transform="matrix(0.9597 -0.281 0.281 0.9597 -6.2902 22.3212)" display="inline" fill="#6C7F9A" cx="74.7" cy="33.1" rx="3.4" ry="2.8"/>
	
		<ellipse transform="matrix(0.9597 -0.281 0.281 0.9597 -12.2202 27.2354)" display="inline" fill="#6C7F9A" cx="88.9" cy="56.2" rx="3.4" ry="2.8"/>
	
		<ellipse transform="matrix(0.9597 -0.281 0.281 0.9597 -17.7654 21.4234)" display="inline" fill="#6C7F9A" cx="65.8" cy="72.7" rx="3.4" ry="2.8"/>
	
		<ellipse transform="matrix(0.9597 -0.281 0.281 0.9597 -26.2325 19.2365)" display="inline" fill="#6C7F9A" cx="54" cy="101.1" rx="3.4" ry="2.8"/>
	
		<ellipse transform="matrix(0.9597 -0.281 0.281 0.9597 -15.6174 31.6702)" display="inline" fill="#6C7F9A" cx="102.6" cy="70.3" rx="1.7" ry="1.4"/>
	<path display="inline" fill="#6C7F9A" d="M94,99.1c0.1,0.5,0.2,1,0.2,1.5c-3.3,2.9-7.1,5.4-11.3,7.3c-2.2-0.6-4-2.1-4.6-4.2
		c-1-3.6,1.6-7.5,5.9-8.7C88.6,93.7,93,95.5,94,99.1z"/>
	<circle display="inline" fill="#6C7F9A" cx="83.6" cy="34.1" r="1.2"/>
	<circle display="inline" fill="#6C7F9A" cx="99.2" cy="87.4" r="1.2"/>
	<circle display="inline" fill="#6C7F9A" cx="96.9" cy="75.3" r="1.2"/>
	<circle display="inline" fill="#6C7F9A" cx="101.5" cy="54.7" r="1.2"/>
	<circle display="inline" fill="#6C7F9A" cx="85.5" cy="69.9" r="1.2"/>
	<circle display="inline" fill="#6C7F9A" cx="68" cy="29" r="1.2"/>
	<circle display="inline" fill="#6C7F9A" cx="70.3" cy="56.1" r="1.2"/>
	<circle display="inline" fill="#6C7F9A" cx="77.9" cy="48.2" r="1.2"/>
	<circle display="inline" fill="#6C7F9A" cx="36" cy="51.9" r="1.2"/>
	<circle display="inline" fill="#6C7F9A" cx="23" cy="68.1" r="1.2"/>
	<path display="inline" fill="#6C7F9A" d="M81.3,24.2c-0.3,0.6-0.8,1.1-1.5,1.3c-1.3,0.4-2.7-0.4-3.1-1.7c-0.1-0.4-0.1-0.8,0-1.2
		C78.2,23.1,79.8,23.6,81.3,24.2z"/>
	<circle display="inline" fill="#6C7F9A" cx="73.8" cy="100" r="1.2"/>
	<circle display="inline" fill="#6C7F9A" cx="60.8" cy="106.3" r="1.2"/>
	<circle display="inline" fill="#6C7F9A" cx="68" cy="96.5" r="1.6"/>
	<circle display="inline" fill="#6C7F9A" cx="73.1" cy="65.5" r="1.6"/>
	<circle display="inline" fill="#6C7F9A" cx="99.2" cy="62.1" r="2.4"/>
	<circle display="inline" fill="#6C7F9A" cx="45.3" cy="53.4" r="2.4"/>
	<circle display="inline" fill="#6C7F9A" cx="93.3" cy="92.3" r="1.2"/>
	<circle display="inline" fill="#6C7F9A" cx="80.5" cy="38.8" r="1.7"/>
	<circle display="inline" fill="#6C7F9A" cx="53.2" cy="86.3" r="1.7"/>
	
		<linearGradient id="SVGID_1_" gradientUnits="userSpaceOnUse" x1="272.8621" y1="176.4914" x2="183.1357" y2="230.5524" gradientTransform="matrix(0.9597 -0.281 0.281 0.9597 -220.599 -55.4389)">
		<stop  offset="0" style="stop-color:#FFFFFF;stop-opacity:0"/>
		<stop  offset="1" style="stop-color:#A2AFC3"/>
	</linearGradient>
	<path display="inline" fill="url(#SVGID_1_)" d="M85.2,98c-24.2,7.1-49.5-6.8-56.6-31c-1-3.4-1.6-6.7-1.8-10.1
		c-0.4-5.8,0.4-11.4,2.1-16.7c0.6-1.8,1.3-3.6,2.1-5.4c-4.8,5-8.4,11-10.5,17.6c-1.7,5.3-2.5,11-2.1,16.7c0.2,3.3,0.8,6.7,1.8,10.1
		c7.1,24.2,32.4,38,56.6,31c13.1-3.8,23.1-13,28.5-24.4C99.9,91.4,93.1,95.7,85.2,98z"/>
</g>
<g>
	<circle fill="#ED1C2D" cx="64" cy="66.2" r="45.6"/>
	<g>
		
			<ellipse transform="matrix(0.3941 0.9191 -0.9191 0.3941 126.7509 -46.3165)" fill="#BC2028" cx="98.5" cy="73" rx="3.4" ry="2.8"/>
		
			<ellipse transform="matrix(0.3941 0.9191 -0.9191 0.3941 129.3434 -16.5634)" fill="#BC2028" cx="77.2" cy="89.8" rx="3.4" ry="2.8"/>
		
			<ellipse transform="matrix(0.3941 0.9191 -0.9191 0.3941 98.576 -11.7004)" fill="#BC2028" cx="58.2" cy="68.9" rx="3.4" ry="2.8"/>
		
			<ellipse transform="matrix(0.3941 0.9191 -0.9191 0.3941 72.9255 10.4777)" fill="#BC2028" cx="28.5" cy="60.5" rx="3.4" ry="2.8"/>
		
			<ellipse transform="matrix(0.3941 0.9191 -0.9191 0.3941 135.9848 4.0443)" fill="#BC2028" cx="64.9" cy="105.2" rx="1.7" ry="1.4"/>
		<path fill="#BC2028" d="M35.3,100.1c-0.5,0.2-1,0.3-1.5,0.4c-3.3-2.9-6.2-6.4-8.6-10.3c0.3-2.3,1.6-4.2,3.7-5.1
			c3.4-1.5,7.6,0.7,9.4,4.9C40,94.1,38.7,98.6,35.3,100.1z"/>
		<circle fill="#BC2028" cx="98.6" cy="82" r="1.2"/>
		<circle fill="#BC2028" cx="47.6" cy="103.8" r="1.2"/>
		<circle fill="#BC2028" cx="59.3" cy="100.1" r="1.2"/>
		<circle fill="#BC2028" cx="80.3" cy="102.1" r="1.2"/>
		<circle fill="#BC2028" cx="63.3" cy="88.1" r="1.2"/>
		<circle fill="#BC2028" cx="101.8" cy="65.8" r="1.2"/>
		<circle fill="#BC2028" cx="75.1" cy="71.4" r="1.2"/>
		<circle fill="#BC2028" cx="83.9" cy="77.9" r="1.2"/>
		<circle fill="#BC2028" cx="64" cy="36.8" r="1.2"/>
		<circle fill="#BC2028" cx="57.6" cy="25.8" r="1.2"/>
		<path fill="#BC2028" d="M108.1,78.5c-0.6-0.2-1.2-0.7-1.5-1.4c-0.5-1.3,0-2.7,1.3-3.3c0.4-0.2,0.8-0.2,1.2-0.2
			C108.9,75.3,108.5,76.9,108.1,78.5z"/>
		<circle fill="#BC2028" cx="32" cy="80.1" r="1.2"/>
		<circle fill="#BC2028" cx="24.2" cy="68" r="1.2"/>
		<circle fill="#BC2028" cx="34.7" cy="74" r="1.6"/>
		<circle fill="#BC2028" cx="66.1" cy="75.3" r="1.6"/>
		<circle fill="#BC2028" cx="72.7" cy="100.8" r="2.4"/>
		<circle fill="#BC2028" cx="74.8" cy="46.3" r="2.4"/>
		<circle fill="#BC2028" cx="41.9" cy="98.5" r="1.2"/>
		<circle fill="#BC2028" cx="93.5" cy="79.5" r="1.7"/>
		<circle fill="#BC2028" cx="43.1" cy="58" r="1.7"/>
	</g>
	<linearGradient id="SVGID_2_" gradientUnits="userSpaceOnUse" x1="83.3131" y1="35.1925" x2="36.011" y2="111.2136">
		<stop  offset="0" style="stop-color:#FFFFFF;stop-opacity:0"/>
		<stop  offset="1" style="stop-color:#D1202C"/>
	</linearGradient>
	<path fill="url(#SVGID_2_)" d="M59.4,95.8C35,89.6,20.3,64.7,26.6,40.3c0-0.1,0.1-0.2,0.1-0.3c-5.2,7.4-8.3,16.4-8.3,26.2
		c0,25.2,20.4,45.6,45.6,45.6c21.2,0,39-14.4,44.1-34C97.5,92.9,78.4,100.7,59.4,95.8z"/>
	
		<ellipse transform="matrix(0.8002 0.5998 -0.5998 0.8002 40.3679 -43.8494)" fill="#EF3B62" cx="86" cy="38.7" rx="12.7" ry="6.2"/>
	<circle fill="#EF3B62" cx="99.5" cy="57.9" r="4"/>
</g>
</svg>
