<?xml version="1.0" encoding="utf-8"?>
<!-- Generator: Adobe Illustrator 17.1.0, SVG Export Plug-In . SVG Version: 6.00 Build 0)  -->
<!DOCTYPE svg PUBLIC "-//W3C//DTD SVG 1.1//EN" "http://www.w3.org/Graphics/SVG/1.1/DTD/svg11.dtd">
<svg version="1.1" id="Layer_1" xmlns="http://www.w3.org/2000/svg" xmlns:xlink="http://www.w3.org/1999/xlink" x="0px" y="0px"
	 viewBox="0 0 612 792" enable-background="new 0 0 612 792" xml:space="preserve">
<g>
	<path fill="#FBA819" d="M310.2,293.3c0,17.6-20.5,21.9-27.7,5.9c7.2,16-9.7,28.4-22.9,16.7c13.2,11.7,2.7,29.8-14.2,24.5
		c16.9,5.3,14.7,26.1-3,28.2c17.7-2.1,24.1,17.9,8.8,26.9c15.4-9.1,29.4,6.5,19,21.1c10.4-14.6,29.6-6.1,25.9,11.5
		c3.7-17.6,24.6-17.6,28.3,0c-3.7-17.6,15.4-26.1,25.9-11.5c-10.4-14.6,3.6-30.1,19-21.1c-15.4-9.1-8.9-29,8.8-26.9
		c-17.7-2.1-19.9-22.9-3-28.2c-16.9,5.3-27.4-12.8-14.2-24.5c-13.2,11.7-30.2-0.6-22.9-16.7C330.7,315.2,310.2,310.9,310.2,293.3z"
		/>
	<linearGradient id="SVGID_1_" gradientUnits="userSpaceOnUse" x1="327.0305" y1="315.4973" x2="285.735" y2="425.4933">
		<stop  offset="0" style="stop-color:#FFFFFF;stop-opacity:0"/>
		<stop  offset="1" style="stop-color:#FECF0A"/>
	</linearGradient>
	<path fill="url(#SVGID_1_)" d="M310.2,293.3c0,17.6-20.5,21.9-27.7,5.9c7.2,16-9.7,28.4-22.9,16.7c13.2,11.7,2.7,29.8-14.2,24.5
		c16.9,5.3,14.7,26.1-3,28.2c17.7-2.1,24.1,17.9,8.8,26.9c15.4-9.1,29.4,6.5,19,21.1c10.4-14.6,29.6-6.1,25.9,11.5
		c3.7-17.6,24.6-17.6,28.3,0c-3.7-17.6,15.4-26.1,25.9-11.5c-10.4-14.6,3.6-30.1,19-21.1c-15.4-9.1-8.9-29,8.8-26.9
		c-17.7-2.1-19.9-22.9-3-28.2c-16.9,5.3-27.4-12.8-14.2-24.5c-13.2,11.7-30.2-0.6-22.9-16.7C330.7,315.2,310.2,310.9,310.2,293.3z"
		/>
	<circle fill="#FECF0A" cx="310.2" cy="360.7" r="45.6"/>
	<linearGradient id="SVGID_2_" gradientUnits="userSpaceOnUse" x1="326.0516" y1="325.8765" x2="290.7629" y2="403.5868">
		<stop  offset="0" style="stop-color:#FFFFFF;stop-opacity:0"/>
		<stop  offset="1" style="stop-color:#FECF0A"/>
	</linearGradient>
	<path fill="url(#SVGID_2_)" d="M314,393.8c-25.2,0-45.6-20.4-45.6-45.6c0-2.3,0.2-4.5,0.5-6.7c-2.7,5.8-4.3,12.4-4.3,19.2
		c0,25.2,20.4,45.6,45.6,45.6c22.9,0,41.9-16.9,45.1-38.9C348.1,383,332.3,393.8,314,393.8z"/>
	
		<ellipse transform="matrix(0.8002 0.5998 -0.5998 0.8002 266.0813 -132.5128)" fill="#FEE44D" cx="331.9" cy="333.1" rx="12.7" ry="6.2"/>
	<circle fill="#FEE44D" cx="346.1" cy="352.2" r="4"/>
</g>
</svg>
